<?xml version="1.0" encoding="UTF-8"?>
<svg xmlns="http://www.w3.org/2000/svg" width="128" height="128" viewBox="0 0 128 128">
  <defs>
    <linearGradient id="sky" x1="0" y1="0" x2="0" y2="1">
      <stop offset="0" stop-color="#4a97d8"/>
      <stop offset="1" stop-color="#a8dcf5"/>
    </linearGradient>
  </defs>

  <rect width="128" height="128" rx="14" fill="url(#sky)"/>

  <!-- Colina -->
  <path d="M0 96 Q32 74 64 90 T128 82 V128 H0 Z" fill="#3f8438"/>

  <!-- Matorral -->
  <ellipse cx="64" cy="112" rx="40" ry="16" fill="#2c6b28"/>
  <ellipse cx="48" cy="106" rx="20" ry="12" fill="#3f9c33"/>
  <ellipse cx="78" cy="106" rx="18" ry="11" fill="#57a845"/>

  <!-- Pato -->
  <g transform="translate(28 26)">
    <ellipse cx="34" cy="34" rx="24" ry="14" fill="#3f9c33"/>
    <ellipse cx="34" cy="38" rx="17" ry="8" fill="#f4f4ec"/>
    <path d="M30 24 L36 8 L48 26 Z" fill="#5cbb46"/>
    <circle cx="56" cy="22" r="11" fill="#3f9c33"/>
    <path d="M64 20 L74 24 L64 28 Z" fill="#f0a828"/>
    <circle cx="58" cy="18" r="4" fill="#ffffff"/>
    <circle cx="59" cy="18" r="2" fill="#101010"/>
    <path d="M24 46 L24 54 M24 54 L18 58 M24 54 L30 58" stroke="#f0a828" stroke-width="3" fill="none" stroke-linecap="round"/>
  </g>
</svg>